# xmcd
#
# Track frame offsets: 
#        150
#        17663
#        38831
#        59165
#        81670
#        103050
#        125434
#        144992
#        174980
#        189469
#        210719
#        231990
#        246879
#        270583
#
# Disc length: 3818 seconds
#
# Revision: 0
# Processed by: cddbd v1.5.2PL0 Copyright (c) Steve Scherf et al.
# Submitted via: ExactAudioCopy v1.1
#
DISCID=cb0ee80e
DTITLE=李宗盛 - 再回首
DYEAR=2009
DGENRE=Pop
TTITLE0=凡人歌
TTITLE1=当爱已成往事
TTITLE2=爱的代价
TTITLE3=这样爱你对不对
TTITLE4=再回首
TTITLE5=你像个孩子
TTITLE6=鬼迷心窍
TTITLE7=给所有单身女人
TTITLE8=寂寞难耐
TTITLE9=和自己赛跑的人
TTITLE10=我是真的爱你
TTITLE11=风柜来的人
TTITLE12=小镇医生的故事
TTITLE13=因为寂寞
EXTD=
EXTT0=
EXTT1=
EXTT2=
EXTT3=
EXTT4=
EXTT5=
EXTT6=
EXTT7=
EXTT8=
EXTT9=
EXTT10=
EXTT11=
EXTT12=
EXTT13=
PLAYORDER=
